<svg width="200" height="200" viewBox="0 0 200 200" xmlns="http://www.w3.org/2000/svg">
  <!-- Background: dark, stormy sky -->
  <rect width="200" height="200" fill="#222" />

  <!-- Pixelated thundercloud (made of simple blocks) -->
  <!-- Left block -->
  <rect x="20" y="40" width="40" height="20" fill="#555" />
  <!-- Top block -->
  <rect x="45" y="30" width="50" height="20" fill="#555" />
  <!-- Right block -->
  <rect x="80" y="40" width="40" height="20" fill="#555" />
  <!-- Bottom block -->
  <rect x="35" y="55" width="90" height="20" fill="#555" />

  <!-- Pixelated rain drops -->
  <g stroke="#66ccff" stroke-width="2">
    <!-- Each line represents a raindrop -->
    <line x1="30" y1="75" x2="30" y2="90" />
    <line x1="50" y1="75" x2="50" y2="90" />
    <line x1="70" y1="75" x2="70" y2="90" />
    <line x1="90" y1="75" x2="90" y2="90" />
    <line x1="110" y1="75" x2="110" y2="90" />
    <line x1="130" y1="75" x2="130" y2="90" />
    <line x1="150" y1="75" x2="150" y2="90" />
  </g>

  <!-- Bigger pixelated lightning bolt -->
  <polygon points="
      110,20
      90,90
      120,90
      100,160
      140,50
      120,50
    " 
    fill="#FFD700" stroke="#000" stroke-width="2"/>
  
  <!-- Optional: pixel grid overlay for extra retro feel -->
  <g stroke="#333" stroke-width="0.5">
    <!-- Horizontal grid -->
    <line x1="0" y1="20" x2="200" y2="20" />
    <line x1="0" y1="40" x2="200" y2="40" />
    <line x1="0" y1="60" x2="200" y2="60" />
    <line x1="0" y1="80" x2="200" y2="80" />
    <line x1="0" y1="100" x2="200" y2="100" />
    <line x1="0" y1="120" x2="200" y2="120" />
    <line x1="0" y1="140" x2="200" y2="140" />
    <line x1="0" y1="160" x2="200" y2="160" />
    <line x1="0" y1="180" x2="200" y2="180" />
    <!-- Vertical grid -->
    <line x1="20" y1="0" x2="20" y2="200" />
    <line x1="40" y1="0" x2="40" y2="200" />
    <line x1="60" y1="0" x2="60" y2="200" />
    <line x1="80" y1="0" x2="80" y2="200" />
    <line x1="100" y1="0" x2="100" y2="200" />
    <line x1="120" y1="0" x2="120" y2="200" />
    <line x1="140" y1="0" x2="140" y2="200" />
    <line x1="160" y1="0" x2="160" y2="200" />
    <line x1="180" y1="0" x2="180" y2="200" />
  </g>
</svg>
